<?xml version="1.0" encoding="UTF-8"?>
<svg preserveAspectRatio="xMidYMid slice" xmlns="http://www.w3.org/2000/svg" width="300px" height="89px" viewBox="0 0 187 55" fill="none">
  <rect width="187" height="55" fill="black" fill-opacity="0"></rect>
  <path d="M0.504 20H4.152L5.328 16.184H11.544L12.72 20H16.776L11.208 2.84H6.144L0.504 20ZM8.448 6.008L10.704 13.424H6.168L8.448 6.008ZM25.8174 20.264C28.9374 20.264 31.2894 17.936 31.2894 13.784V13.592C31.2894 9.44 28.8894 7.16 25.8174 7.16C23.9694 7.16 22.5054 8.216 21.8094 9.416V1.76H18.3294V20H21.8094V18.008C22.4574 19.304 23.8734 20.264 25.8174 20.264ZM24.7854 17.552C22.8894 17.552 21.6894 16.328 21.6894 13.808V13.616C21.6894 11.096 22.9374 9.824 24.7614 9.824C26.5134 9.824 27.7614 11.072 27.7614 13.616V13.808C27.7614 16.256 26.7054 17.552 24.7854 17.552ZM33.2267 20H36.6827V7.448H33.2267V20ZM34.9307 5.744C36.0587 5.744 36.9227 4.928 36.9227 3.848C36.9227 2.768 36.0587 1.952 34.9307 1.952C33.8267 1.952 32.9627 2.768 32.9627 3.848C32.9627 4.928 33.8267 5.744 34.9307 5.744ZM42.7847 20.264C44.7527 20.264 45.8567 19.496 46.5767 18.488V20H49.9607V11.816C49.9607 8.408 47.7767 7.16 44.7047 7.16C41.6327 7.16 39.2807 8.48 39.0647 11.456H42.3527C42.4967 10.376 43.1207 9.68 44.4887 9.68C46.0727 9.68 46.5287 10.496 46.5287 11.984V12.488H45.1127C41.2727 12.488 38.5847 13.592 38.5847 16.52C38.5847 19.16 40.5047 20.264 42.7847 20.264ZM43.8167 17.84C42.5447 17.84 41.9927 17.24 41.9927 16.328C41.9927 14.984 43.1687 14.552 45.1847 14.552H46.5287V15.608C46.5287 17 45.3527 17.84 43.8167 17.84ZM63.6199 20.264C67.6759 20.264 70.1719 17.84 70.1719 14.792C70.1719 11.24 68.0359 10.112 63.8839 9.584C61.2439 9.2 60.6919 8.624 60.6919 7.4C60.6919 6.248 61.5559 5.456 63.2599 5.456C64.9639 5.456 65.8759 6.176 66.1159 7.736H69.6919C69.3799 4.328 67.1239 2.6 63.2599 2.6C59.4679 2.6 57.0199 4.784 57.0199 7.712C57.0199 11.024 58.8199 12.344 63.2119 12.92C65.7319 13.304 66.4519 13.784 66.4519 15.152C66.4519 16.496 65.3239 17.432 63.6199 17.432C61.0759 17.432 60.4279 16.16 60.2599 14.624H56.5399C56.7559 18.056 58.9159 20.264 63.6199 20.264ZM76.7634 20.24C77.6994 20.24 78.3954 20.072 78.8754 19.904V17.216C78.4674 17.384 78.0834 17.456 77.5554 17.456C76.6674 17.456 76.1634 16.976 76.1634 15.968V9.92H78.8034V7.448H76.1634V4.736H72.7074V7.448H71.0994V9.92H72.7074V16.28C72.7074 18.896 74.1234 20.24 76.7634 20.24ZM84.2475 20.264C86.2155 20.264 87.3195 19.496 88.0395 18.488V20H91.4235V11.816C91.4235 8.408 89.2395 7.16 86.1675 7.16C83.0955 7.16 80.7435 8.48 80.5275 11.456H83.8155C83.9595 10.376 84.5835 9.68 85.9515 9.68C87.5355 9.68 87.9915 10.496 87.9915 11.984V12.488H86.5755C82.7355 12.488 80.0475 13.592 80.0475 16.52C80.0475 19.16 81.9675 20.264 84.2475 20.264ZM85.2795 17.84C84.0075 17.84 83.4555 17.24 83.4555 16.328C83.4555 14.984 84.6315 14.552 86.6475 14.552H87.9915V15.608C87.9915 17 86.8155 17.84 85.2795 17.84ZM98.5144 20.24C99.4504 20.24 100.146 20.072 100.626 19.904V17.216C100.218 17.384 99.8344 17.456 99.3064 17.456C98.4184 17.456 97.9144 16.976 97.9144 15.968V9.92H100.554V7.448H97.9144V4.736H94.4584V7.448H92.8504V9.92H94.4584V16.28C94.4584 18.896 95.8744 20.24 98.5144 20.24ZM108.281 20.264C111.713 20.264 113.873 18.752 114.281 16.04H110.993C110.777 17.096 109.985 17.792 108.377 17.792C106.481 17.792 105.353 16.592 105.257 14.504H114.305V13.544C114.305 9.056 111.425 7.16 108.185 7.16C104.537 7.16 101.729 9.728 101.729 13.688V13.88C101.729 17.888 104.489 20.264 108.281 20.264ZM105.305 12.368C105.569 10.592 106.625 9.56 108.185 9.56C109.841 9.56 110.801 10.472 110.921 12.368H105.305ZM8.784 47.264C13.416 47.264 16.032 44.84 16.032 40.16V29.84H12.12V39.92C12.12 43.064 11.112 44.168 8.808 44.168C6.456 44.168 5.616 42.92 5.616 40.064V29.84H1.704V40.304C1.704 44.864 4.272 47.264 8.784 47.264ZM18.681 47H22.161V39.752C22.161 37.904 23.289 36.992 24.777 36.992C26.313 36.992 26.985 37.808 26.985 39.512V47H30.465V39.008C30.465 35.648 28.713 34.16 26.241 34.16C24.153 34.16 22.785 35.192 22.161 36.44V34.448H18.681V47ZM33.0626 47H36.5186V34.448H33.0626V47ZM34.7666 32.744C35.8946 32.744 36.7586 31.928 36.7586 30.848C36.7586 29.768 35.8946 28.952 34.7666 28.952C33.6626 28.952 32.7986 29.768 32.7986 30.848C32.7986 31.928 33.6626 32.744 34.7666 32.744ZM42.6206 47H46.5326L51.0926 34.448H47.7326L44.7566 43.424L41.7566 34.448H38.0366L42.6206 47ZM57.6656 47.264C61.0976 47.264 63.2576 45.752 63.6656 43.04H60.3776C60.1616 44.096 59.3696 44.792 57.7616 44.792C55.8656 44.792 54.7376 43.592 54.6416 41.504H63.6896V40.544C63.6896 36.056 60.8096 34.16 57.5696 34.16C53.9216 34.16 51.1136 36.728 51.1136 40.688V40.88C51.1136 44.888 53.8736 47.264 57.6656 47.264ZM54.6896 39.368C54.9536 37.592 56.0096 36.56 57.5696 36.56C59.2256 36.56 60.1856 37.472 60.3056 39.368H54.6896ZM65.4876 47H68.9676V40.712C68.9676 38.312 70.4556 37.472 73.0236 37.496V34.256C70.9836 34.28 69.7596 35.168 68.9676 36.848V34.448H65.4876V47ZM79.3879 47.264C82.6999 47.264 84.6679 45.848 84.6679 43.136C84.6679 40.448 82.9399 39.656 79.7959 39.2C77.9719 38.936 77.3719 38.624 77.3719 37.832C77.3719 37.064 78.0199 36.536 79.1479 36.536C80.3479 36.536 80.9239 37.016 81.1159 38.048H84.3079C83.9959 35.168 81.9079 34.16 79.1239 34.16C76.5559 34.16 74.1559 35.456 74.1559 38.072C74.1559 40.52 75.4519 41.48 78.7879 41.984C80.5879 42.248 81.3319 42.608 81.3319 43.472C81.3319 44.336 80.7079 44.84 79.3639 44.84C77.8519 44.84 77.2999 44.192 77.1559 43.064H73.9159C74.0359 45.776 76.0039 47.264 79.3879 47.264ZM86.4907 47H89.9467V34.448H86.4907V47ZM88.1947 32.744C89.3227 32.744 90.1867 31.928 90.1867 30.848C90.1867 29.768 89.3227 28.952 88.1947 28.952C87.0907 28.952 86.2267 29.768 86.2267 30.848C86.2267 31.928 87.0907 32.744 88.1947 32.744ZM97.2488 47.24C98.1848 47.24 98.8808 47.072 99.3608 46.904V44.216C98.9528 44.384 98.5688 44.456 98.0408 44.456C97.1528 44.456 96.6488 43.976 96.6488 42.968V36.92H99.2888V34.448H96.6488V31.736H93.1928V34.448H91.5848V36.92H93.1928V43.28C93.1928 45.896 94.6088 47.24 97.2488 47.24ZM102.816 51.272H106.176L112.968 34.448H109.632L106.824 41.984L103.776 34.448H100.032L105.024 45.728L102.816 51.272Z" fill="#011B33"></path>
</svg>
