<?xml version="1.0" encoding="UTF-8"?>
<svg preserveAspectRatio="xMidYMid slice" xmlns="http://www.w3.org/2000/svg" width="300px" height="113px" viewBox="0 0 688.27 258.54">
  <defs>
    <style>.cls-1{fill:#011b33;}</style>
  </defs>
  <title>Ariiya Stack Blue</title>
  <g id="Layer_2" data-name="Layer 2">
    <g id="Layer_1-2" data-name="Layer 1">
      <path class="cls-1" d="M354.36.17A30.14,30.14,0,0,0,345,2.54c-4.7,2.08-9.22,6.11-11.11,10-1,2.12-1,2.31-1,6s.06,4,.89,5.7c2.6,5.25,8.87,9.38,16.33,10.66a40,40,0,0,0,13.83-.48c6.88-1.83,13.09-6.34,15.49-11.33,3.33-6.85,1.09-14.09-5.76-18.67C368.38,1,361.73-.47,354.36.17Z"></path>
      <path class="cls-1" d="M408,.17a31.2,31.2,0,0,0-9.22,2.37c-4.71,2.08-9.22,6.11-11.11,10-1,2.12-1.05,2.31-1.05,6s.06,4,.89,5.7c2.6,5.25,8.87,9.38,16.33,10.66a40,40,0,0,0,13.83-.48c6.88-1.83,13.09-6.34,15.49-11.33,3.33-6.85,1.09-14.09-5.76-18.67C422.16,1,415.18-.54,408,.17Z"></path>
      <path class="cls-1" d="M56.86,30.48a7.17,7.17,0,0,1-1.45.71,22.7,22.7,0,0,0-10.3,9.44,32.92,32.92,0,0,0-2,5.28c-.45,1.67-1,3.91-1.31,5s-.93,3.49-1.44,5.44-1.63,6.25-2.53,9.61c-1.86,6.94-2.43,9.15-5.31,20-1.16,4.33-2.47,9.29-2.92,11s-1,3.62-1.12,4.16c-.32,1-2.69,9.92-5.09,19.21-.7,2.62-1.63,6.17-2.08,7.84S20,133.36,19.24,136s-1.6,6.08-2,7.68-1.38,5.19-2.15,8-1.7,6.4-2.11,8-1.35,5-2.05,7.68-1.54,5.89-1.92,7.2-1.35,5.13-2.24,8.49-1.95,7.46-2.4,9.12-1.25,4.71-1.79,6.72-1.32,5-1.77,6.63c-2.27,8.42.29,13.92,7.46,16,.23.07.32.32.23.61s8.35.48,83.83.48c83.74,0,84,0,84.19-.64.1-.45.45-.64,1-.64,1.22,0,4.71-1.66,7.08-3.36,4.26-3,6.66-6.82,8.39-13.29.57-2.2,1.47-5.6,2-7.52s1.44-5.41,2.05-7.68c1.66-6.21,3.07-11.49,3.9-14.73.42-1.6,1.28-4.83,1.92-7.2s1.73-6.5,2.41-9.12,1.76-6.76,2.4-9.12,1.47-5.41,1.82-6.73.8-3.13,1.06-4,.77-3,1.21-4.64,1.48-5.57,2.31-8.64c1.57-5.92,1.95-7.4,3.87-14.57.64-2.46,1.51-5.79,1.95-7.36s1.41-5.41,2.21-8.48c1.35-5.19,3.56-13.38,4.29-16,.16-.61.61-2.27,1-3.68.87-3.39,2.28-8.61,3.68-13.92.64-2.37,1.51-5.64,1.92-7.21s1.29-4.89,1.93-7.36c1-3.84,1.15-4.83,1-6.88a12.57,12.57,0,0,0-.8-3.91,12.06,12.06,0,0,0-4.83-5l-1.38-.7H143C95.78,30.23,57,30.35,56.86,30.48ZM183.14,57.75a11.08,11.08,0,0,1-.45,2c-2.4,7.11-7.75,25.93-11.24,39.47-2.49,9.73-3.81,14.85-4.77,18.4-.41,1.67-1.47,5.64-2.27,8.81-3.9,15.17-4.77,18.56-5.92,22.89-.7,2.56-1.92,6.88-2.72,9.6-4.9,16.39-7.4,26.54-7.75,31.4l-.19,2.79-1.15.32a26.76,26.76,0,0,1-18.38-1,30,30,0,0,1-9-6.69L117,183.14l-1.73,1.28a45.74,45.74,0,0,1-18.18,8.26,38.68,38.68,0,0,1-14.24-.45c-10.54-2.91-18.41-11.78-21.68-24.45-1.56-6-2-9.9-2-17.51,0-4,.19-8.13.38-9.29s.61-3.52.9-5.28a88.39,88.39,0,0,1,3.3-13.12c4.89-14.86,12.19-27,22.12-37C99.33,72,113.32,66.75,126.64,70.11a27.19,27.19,0,0,1,13.09,8.45c.9,1.06,1.7,1.83,1.83,1.7s2.11-7.08,2.43-8.8c.19-1.09,3-3.75,6.08-5.77a52,52,0,0,1,23-7.9,14,14,0,0,0,2.95-.48,20,20,0,0,1,3.68-.2C182.91,57.11,183.14,57.15,183.14,57.75Z"></path>
      <path class="cls-1" d="M119.76,96.94c-7.56,2.11-16.26,12.61-21.39,25.8A64.32,64.32,0,0,0,93.6,144.5c-.35,9.8,1.25,15.59,4.93,17.93a5.43,5.43,0,0,0,3.81,1,7.84,7.84,0,0,0,4.8-1.28c7.17-3.59,15-14.34,19.72-27.21,3.62-9.83,5-16.93,4.64-24.17-.41-8-2.3-12.13-6.17-13.6A8.24,8.24,0,0,0,119.76,96.94Z"></path>
      <path class="cls-1" d="M613.84,57.15c-16.26,2.08-34.28,15.91-47,36a149.31,149.31,0,0,0-10,20.39,110.21,110.21,0,0,0-6.47,25.7,120.85,120.85,0,0,0,0,23.37c2.34,17.32,9.31,28.71,21.16,34.57a28.71,28.71,0,0,0,13.35,3.27,36.07,36.07,0,0,0,7.68-.36,54,54,0,0,0,22.18-9.79,6.85,6.85,0,0,1,2.05-1.22,20.51,20.51,0,0,1,2.11,2.31,32.62,32.62,0,0,0,15.37,9.83c3.36.92,10.92,1,14.53.19A62.94,62.94,0,0,0,667,193.67c2.89-1.76,3-1.89,3.46-3.49,4.55-15.94,6.82-24.07,6.72-24.16a10.09,10.09,0,0,0-2.3.57c-2.72.83-6.82,1.15-8.68.67-2.94-.8-4.48-3.26-4.12-6.59.09-.9,6-24.2,13.15-51.79s13-50.29,13-50.36-9-.09-19.91-.06l-19.88.1-1.54,5.72c-.86,3.14-1.6,5.8-1.66,5.86a11.74,11.74,0,0,1-2-2.11C636.38,59.55,625.78,55.64,613.84,57.15Zm13.67,32.39c3.59,2.08,5.35,6.08,6,13.77.83,8.41-.86,18.08-5.09,29.19-4.64,12.2-9.12,19.72-15.75,26.44-5.15,5.25-8.86,7.33-13.06,7.33-4.93,0-7.9-3.1-9.51-9.92-.73-3.14-1-12.17-.51-16.68,2.56-22.34,16.52-46.32,29.45-50.61C621.78,88.2,625.59,88.39,627.51,89.54Z"></path>
      <path class="cls-1" d="M325.27,58.56c0,.09-8.2,31.65-18.25,70.13s-18.25,70-18.25,70.1,9.13.13,20.3.13c19.08,0,20.33,0,20.49-.57S365.47,60.54,365.79,59.26l.19-.87H345.62C334.42,58.39,325.27,58.46,325.27,58.56Z"></path>
      <path class="cls-1" d="M379,58.56c0,.09-8.19,31.65-18.24,70.13s-18.25,70-18.25,70.1,9.12.13,20.3.13c19.07,0,20.32,0,20.48-.57S419.25,60.51,419.57,59.26l.19-.87H399.4C388.2,58.39,379,58.46,379,58.56Z"></path>
      <path class="cls-1" d="M428.88,59.26c.07.51,3.14,32.07,6.82,70.17l6.69,69.27-2.62,3.39a107.39,107.39,0,0,1-7.27,8.07c-5.38,5.38-9.73,8.51-14.34,10.24-2.56,1-3.1,1.06-6.47,1.09s-3.8-.06-5.05-.8c-1.48-.83-2.63-2.37-2.63-3.49,0-.35-.09-.67-.22-.67s-4.42,5.82-9.54,12.93L385,242.39l0,2.21c0,6.4,5.63,11.08,15.65,13,15.65,3.11,31.05-1.73,48.4-15.24A119.22,119.22,0,0,0,464,227.73c2.31-2.88,9.54-13.63,14-20.8,1.47-2.37,22.44-36.69,46.6-76.29l43.92-71.92H527.73l-4.83,7.93c-8.1,13.26-45,73.53-45.17,73.66s-.16.06-.22,0-1.89-18.53-4.07-41l-3.93-40.88H428.76Z"></path>
      <path class="cls-1" d="M301,59.2c-5.12,1-12.74,4.06-18.6,7.55-1.44.86-1.66.93-1.53.42.09-.32.54-2,1-3.81s.9-3.46,1-3.78c.16-.51-1-.54-20.16-.54h-20.3l-.35,1c-.42,1.34-37.16,138.13-37.16,138.35s9.12.19,20.29.19c19.08,0,20.33,0,20.49-.57.06-.29,5.05-18.86,11.07-41.2,9.86-36.62,11.11-41,12.52-44,7.87-16.58,20-22,34.38-15.39a18.68,18.68,0,0,0,3,1.21c.12,0,2.27-8.54,4.73-18.95,5.09-21.19,4.9-19.27,1.89-20.23C311.05,58.75,304.07,58.59,301,59.2Z"></path>
    </g>
  </g>
</svg>
