<?xml version="1.0" encoding="UTF-8"?>
<svg preserveAspectRatio="xMidYMid slice" xmlns="http://www.w3.org/2000/svg" width="300px" height="84px" viewBox="0 0 143 40" fill="none">
  <path fill-rule="evenodd" clip-rule="evenodd" d="M120.512 33.871C119.93 33.6856 119.422 33.4704 118.992 33.2258L116.964 38.6615C117.854 39.0619 118.792 39.3846 119.774 39.6329C120.757 39.8776 121.832 40 123 40C124.843 40 126.448 39.6144 127.817 38.8469C129.185 38.0794 130.268 36.7557 131.065 34.8832L142.311 8.24977H134.016L129.5 21.3792L124.939 8.24977H116.181L125.722 29.7664L124.431 32.6733C124.183 33.2258 123.883 33.6078 123.53 33.8228C123.178 34.0377 122.711 34.1453 122.125 34.1453C121.636 34.1453 121.098 34.0564 120.512 33.871ZM107.62 20.6673C108.08 20.6229 108.543 20.582 109.003 20.5524V24.746C108.603 25.0537 108.165 25.2985 107.691 25.4838C107.212 25.6692 106.686 25.7582 106.1 25.7582C105.303 25.7582 104.68 25.5543 104.235 25.1391C103.79 24.7238 103.564 24.1935 103.564 23.5484C103.564 22.9329 103.764 22.373 104.164 21.865C104.565 21.3607 105.24 21.027 106.193 20.875C106.686 20.7822 107.16 20.7119 107.62 20.6673ZM109.511 28.984L110.156 30.7378L116.93 30.7377V16.5441C116.93 13.5334 116.055 11.3123 114.302 9.88484C112.551 8.4536 110.201 7.7417 107.253 7.7417C105.132 7.7417 103.312 8.04948 101.791 8.66498C100.271 9.27678 98.8955 10.1221 97.6682 11.1974L101.261 15.2056C101.999 14.6234 102.759 14.1637 103.541 13.8225C104.328 13.4851 105.162 13.3183 106.055 13.3183C106.853 13.3183 107.546 13.5333 108.128 13.9635C108.71 14.3936 109.003 15.0684 109.003 15.9917V16.5441C108.299 16.574 107.52 16.6297 106.675 16.7037C105.829 16.7815 104.917 16.8964 103.934 17.0522C102.859 17.2042 101.847 17.4638 100.894 17.8346C99.9412 18.2017 99.1032 18.6799 98.3801 19.2621C97.6608 19.8442 97.0898 20.5524 96.6782 21.3792C96.263 22.2098 96.0553 23.1812 96.0553 24.2862C96.0553 25.3615 96.237 26.3144 96.6078 27.1412C96.9749 27.9718 97.4902 28.6874 98.1502 29.2843C98.8103 29.885 99.5889 30.3374 100.479 30.6451C101.369 30.9491 102.336 31.1049 103.382 31.1049C104.765 31.1049 105.978 30.8973 107.023 30.482C108.065 30.0704 108.896 29.5699 109.511 28.984ZM60.2153 2.56938L70.182 30.7378H76.3111L79.8113 18.9395L83.3597 30.7378H89.5332L97.5088 8.24977H89.2589L85.9403 20.1853L82.4846 8.24977H77.2306L73.7749 20.1853L68.0129 2.56938H60.2153ZM45.9401 8.24977V13.8709H49.1214V23.7337C49.1214 24.8683 49.2365 25.8954 49.4663 26.8187C49.6962 27.7419 50.0892 28.5243 50.6417 29.1694C51.1941 29.8146 51.9246 30.3151 52.8293 30.6674C53.7377 31.0197 54.8501 31.1976 56.17 31.1976C57.7385 31.1976 59.1141 31.0122 60.2969 30.6451C61.4797 30.2743 62.5772 29.7404 63.5894 29.0323L61.5168 24.1453C61.1163 24.453 60.664 24.7313 60.156 24.9759C59.6517 25.2205 59.1215 25.3466 58.569 25.3466C57.9832 25.3466 57.6087 25.1316 57.4381 24.7015C57.2713 24.2714 57.186 23.6707 57.186 22.9032V13.8709H62.5958L60.6046 8.24977H57.186V2.58051H49.1215V8.24977H45.9401ZM37.4863 13.8931C38.1166 14.5828 38.4761 15.5283 38.5689 16.7296H31.5648C31.6872 15.5617 32.0951 14.6236 32.7847 13.9154C33.4781 13.2109 34.2827 12.8549 35.2059 12.8549C36.0958 12.8549 36.8559 13.2035 37.4863 13.8931ZM32.8329 24.1713C32.0172 23.4186 31.5797 22.3655 31.5166 21.0122H46.1255C46.0959 16.496 45.091 13.1553 43.1073 10.9899C41.1274 8.82449 38.4614 7.74182 35.1132 7.74182C33.4855 7.74182 31.9727 8.00137 30.5749 8.52419C29.177 9.04698 27.972 9.81448 26.956 10.8304C25.9401 11.8427 25.1429 13.0774 24.5607 14.5383C23.9749 15.9992 23.6857 17.664 23.6857 19.5402C23.6857 21.4756 23.9897 23.1702 24.6052 24.631C25.2207 26.0882 26.0513 27.3044 27.0969 28.2684C28.1388 29.2399 29.3587 29.9703 30.7602 30.4597C32.1581 30.9493 33.6523 31.1976 35.2504 31.1976C36.5704 31.1976 37.7606 31.09 38.8211 30.875C39.8815 30.66 40.8196 30.3522 41.6316 29.9518C42.4474 29.5551 43.1704 29.099 43.8007 28.5947C44.431 28.0867 44.9909 27.5268 45.4841 26.9113L40.5526 23.0404C39.9334 23.8079 39.266 24.3789 38.5467 24.7459C37.8237 25.1168 36.9561 25.2984 35.9438 25.2984C34.6831 25.2984 33.6449 24.924 32.8329 24.1713ZM9.05453 25.2316C8.73195 25.1834 8.39827 25.1167 8.06085 25.0204V14.1451C8.43164 14.0228 8.79871 13.9224 9.16949 13.8484C9.53658 13.7707 9.93701 13.7335 10.3671 13.7335C11.6575 13.7335 12.7253 14.1933 13.5707 15.1129C14.4124 16.0361 14.8351 17.4636 14.8351 19.3991C14.8351 21.3977 14.405 22.8808 13.5447 23.8485C12.6845 24.8163 11.5648 25.2983 10.1817 25.2983C9.75163 25.2983 9.37712 25.276 9.05453 25.2316ZM10.0223 7.90125C9.32893 8.00879 8.67635 8.15709 8.06085 8.34247V0H0V29.3994C1.37932 29.9222 2.88469 30.3598 4.51244 30.712C6.14389 31.0681 7.97185 31.2459 9.99632 31.2459C11.8391 31.2459 13.5373 30.9975 15.0909 30.5081C16.6408 30.015 17.9867 29.2697 19.1213 28.2685C20.2596 27.2748 21.1421 26.0068 21.7724 24.468C22.4028 22.933 22.7179 21.1198 22.7179 19.0323C22.7179 17.4639 22.4881 15.9919 22.0246 14.6089C21.5648 13.2259 20.8974 12.0282 20.0223 11.0123C19.1473 10.0001 18.0609 9.19914 16.7706 8.61702C15.4802 8.0349 14.023 7.74194 12.3953 7.74194C11.5017 7.74194 10.7119 7.79361 10.0223 7.90125Z" fill="#011B33"></path>
</svg>
