<?xml version="1.0" encoding="UTF-8"?>
<svg preserveAspectRatio="xMidYMid slice" xmlns="http://www.w3.org/2000/svg" width="300px" height="66px" viewBox="0 0 165 36" fill="none">
  <path fill-rule="evenodd" clip-rule="evenodd" d="M128.681 35.1708L122.16 11.1963L112.495 33.388C112.151 34.1074 111.729 34.6704 111.228 35.077C110.759 35.4523 110.165 35.64 109.445 35.64C108.038 35.64 107.021 34.8893 106.396 33.388L98.5766 16.4041L99.1237 35.1708H93.1652V3.07971C93.5718 1.45325 94.5571 0.640015 96.121 0.640015C96.7465 0.640015 97.3252 0.812073 97.8569 1.15613C98.4199 1.50018 98.8422 2.00061 99.1237 2.65747L109.633 26.7727L120.142 2.65747C120.705 1.3125 121.659 0.640015 123.004 0.640015C124.443 0.640015 125.397 1.45325 125.866 3.07971L134.593 35.1708H128.681ZM17.0817 35.3275C14.7046 35.3275 12.4995 34.8895 10.4664 34.0138C8.46461 33.1067 6.71305 31.8868 5.21171 30.3542C3.74165 28.7903 2.58436 26.9449 1.73986 24.8181C0.926632 22.6912 0.52002 20.3922 0.52002 17.9213C0.52002 15.4191 0.926632 13.1357 1.73986 11.0714C2.58436 9.00708 3.74165 7.25549 5.21171 5.81671C6.71305 4.34668 8.46461 3.22064 10.4664 2.43872C12.4995 1.62549 14.7046 1.21887 17.0817 1.21887H35.5669V7.17731H17.0817C15.5491 7.17731 14.1259 7.4588 12.8122 8.02179C11.5299 8.55353 10.4195 9.3042 9.48114 10.2738C8.5428 11.2435 7.80777 12.4007 7.27605 13.7457C6.74433 15.0906 6.47847 16.5764 6.47847 18.2028C6.47847 19.798 6.74433 21.2836 7.27605 22.6599C7.80777 24.0361 8.5428 25.2247 9.48114 26.2256C10.4195 27.1952 11.5299 27.9615 12.8122 28.5245C14.1259 29.0875 15.5491 29.369 17.0817 29.369H31.6728V20.5017H16.2841V15.4816H37.6782V35.3275H17.0817ZM42.5433 35.3275V1.21887H48.5017V35.3275H42.5433ZM62.7457 34.0138C64.7788 34.8895 66.9839 35.3275 69.361 35.3275H89.9575V15.4816H68.5634V20.5017H83.9522V29.369H69.361C67.8284 29.369 66.4053 29.0875 65.0916 28.5245C63.8092 27.9615 62.6988 27.1952 61.7605 26.2256C60.8221 25.2247 60.0871 24.0361 59.5554 22.6599C59.0237 21.2836 58.7578 19.798 58.7578 18.2028C58.7578 16.5764 59.0237 15.0906 59.5554 13.7457C60.0871 12.4007 60.8221 11.2435 61.7605 10.2738C62.6988 9.3042 63.8092 8.55353 65.0916 8.02179C66.4053 7.4588 67.8284 7.17731 69.361 7.17731H87.8463V1.21887H69.361C66.9839 1.21887 64.7788 1.62549 62.7457 2.43872C60.7439 3.22064 58.9924 4.34668 57.491 5.81671C56.021 7.25549 54.8637 9.00708 54.0192 11.0714C53.206 13.1357 52.7994 15.4191 52.7994 17.9213C52.7994 20.3922 53.206 22.6912 54.0192 24.8181C54.8637 26.9449 56.021 28.7903 57.491 30.3542C58.9924 31.8868 60.7439 33.1067 62.7457 34.0138ZM153.263 31.8085C153.263 34.4546 151.475 35.468 149.828 35.468H149.814C147.816 35.468 146.394 34.1309 146.394 31.907C146.394 29.6268 147.83 28.2615 149.913 28.2615C151.968 28.2615 153.263 29.7253 153.263 31.8085ZM148.871 31.8647C148.871 32.9485 149.167 33.7227 149.856 33.7227H149.87C150.49 33.7227 150.785 32.9344 150.785 31.8647C150.785 30.9218 150.532 30.0068 149.856 30.0068C149.11 30.0068 148.871 30.9499 148.871 31.8647ZM145.94 33.3849C145.659 33.5115 145.349 33.5538 144.969 33.5538C144.097 33.5538 143.407 32.9626 143.407 31.8366C143.393 30.795 144.026 30.1476 144.941 30.1476C145.377 30.1476 145.673 30.218 145.898 30.3024L146.222 28.4868C145.828 28.346 145.279 28.2756 144.8 28.2756C142.295 28.2756 140.944 29.8802 140.944 31.9351C140.944 34.159 142.323 35.4539 144.491 35.4539C145.194 35.4539 145.842 35.3413 146.18 35.2006L145.94 33.3849ZM139.009 35.468C139.84 35.468 140.403 34.8768 140.403 34.0182C140.389 33.1315 139.812 32.5544 139.023 32.5544C138.235 32.5544 137.63 33.1597 137.63 34.0182C137.63 34.8768 138.221 35.468 138.995 35.468H139.009ZM154.119 35.3272H156.498V31.2595C156.498 31.0765 156.512 30.8936 156.568 30.7528C156.681 30.4995 156.892 30.2321 157.272 30.2321C157.821 30.2321 157.99 30.7669 157.99 31.4144V35.3272H160.368V31.2595C160.368 31.1047 160.382 30.8936 160.425 30.7809C160.537 30.4573 160.777 30.2321 161.143 30.2321C161.663 30.2321 161.86 30.7388 161.86 31.5551V35.3272H164.239V31.1891C164.239 29.3594 163.493 28.2615 162.043 28.2615C161.607 28.2615 161.227 28.36 160.889 28.529C160.551 28.7119 160.256 28.9794 160.002 29.3031H159.974C159.707 28.6697 159.073 28.2615 158.215 28.2615C157.159 28.2615 156.554 28.8527 156.273 29.2468H156.23L156.118 28.4023H154.063C154.091 29.0638 154.119 29.852 154.119 30.7106V35.3272ZM131.57 6.39508H130.352V2.70038H129.261V1.65179H132.682V2.70038H131.57V6.39508ZM137.991 6.39508H136.837L136.774 4.75537C136.76 4.26978 136.746 3.65045 136.746 2.98187H136.725C136.605 3.57306 136.422 4.24866 136.295 4.69904L135.866 6.29657H134.937L134.564 4.70605C134.458 4.25568 134.318 3.5871 134.226 2.98187H134.212C134.192 3.42334 134.172 3.88983 134.154 4.29712L134.154 4.30261L134.135 4.75537L134.064 6.39508H132.966L133.283 1.65179H134.817L135.127 2.99597C135.254 3.54486 135.387 4.15015 135.479 4.72015H135.5C135.613 4.15717 135.76 3.51672 135.887 2.98895L136.225 1.65179H137.738L137.991 6.39508Z" fill="#011B33"></path>
</svg>
