<?xml version="1.0" encoding="UTF-8"?>
<svg preserveAspectRatio="xMidYMid slice" xmlns="http://www.w3.org/2000/svg" width="300px" height="94px" viewBox="0 0 573.49 179.82">
  <defs>
    <style>.cls-1{fill:#011b33;}</style>
  </defs>
  <title>Ibom Air Stack Blue</title>
  <g id="Layer_2" data-name="Layer 2">
    <g id="Layer_1-2" data-name="Layer 1">
      <path class="cls-1" d="M40.3,177.75q-5.52-.85-10.69-1.37a100.37,100.37,0,0,0-10.16-.52,75.35,75.35,0,0,0-8.42.52q-4.63.51-10.12,1.37L0,175q6-2.75,7.81-5.68,2.17-3.78,2.87-13.41.39-6.89,0-30.63-.29-15.82-.64-26.75T9.2,81.25c-.18-4-.87-7.06-2-9.12s-3.4-3.84-7-5.68l.63-3.1q6.93,2.25,17.59,2.24a75.12,75.12,0,0,0,18.36-2.41l.92,3.27q-6,2.92-7.46,6.37-1.16,2.58-1,9.63c0,1.49.06,3.38.1,5.68s0,4.76,0,7.74-.07,5.62,0,7.91.07,4,.09,5.51c0,2.17.22,7.34.53,15.48s.71,19.44,1.19,33.89q.29,6.71,2.33,10.15T41.11,175Z"></path>
      <path class="cls-1" d="M102.53,165a54,54,0,0,1-37.76,14.8,66.21,66.21,0,0,1-17.07-2.07L47.65,175q6.83-3.27,5.87-38.19l-.63-16.34q-.15-9.12-1-30.11-.27-5.67-.5-9c-.16-2.24-.3-3.7-.42-4.39Q49.25,69.2,42.36,69l0-2.92a100.34,100.34,0,0,0,13.54-2.67c4.46-1.2,8.9-2.61,13.35-4.21l1.39.68c0,.35,0,.89-.06,1.64s-.06,1.52,0,2.32a20.17,20.17,0,0,1,0,2.06c0,.69-.06,1.1-.06,1.21l0,8.94.65,37q9.21-13.93,22.63-13.93,11.7,0,18.4,9.11,6,7.92,6.2,20.3Q118.61,150.06,102.53,165ZM85.41,111q-15-1-14.48,27.69c0,3,.1,5.62.14,7.92s.1,4.44.2,6.45.21,4,.36,6,.3,4.1.45,6.28q1.35,7.9,7.19,7.91,9.65,0,15.58-14.62A56.64,56.64,0,0,0,99.27,136Q98.85,111.86,85.41,111Z"></path>
      <path class="cls-1" d="M180.78,164q-10.93,14.28-28,14.28-14.1,0-22-8.77-7.36-8.26-7.62-22.88a53.26,53.26,0,0,1,9.58-32.35q11.08-15.48,28.81-15.48,13.93,0,21.51,10.5,6.87,9.28,7.13,23.74Q190.52,150.91,180.78,164ZM170,120.47q-4.77-17-15.09-17-15.82,0-15.29,30.62A84.54,84.54,0,0,0,143.52,158q5.08,16,15.24,16,15.13,0,14.64-28.73A102.14,102.14,0,0,0,170,120.47Z"></path>
      <path class="cls-1" d="M315,177.75c-2.65-.45-5.35-.8-8.1-1s-5.63-.34-8.61-.34q-2.58,0-7,.25c-2.93.18-6.39.49-10.4,1l-.74-3.27q6.33-1.71,8.16-5.5c.88-2.07,1.28-5.39,1.2-10l-.12-6.71,0-1.72c-.13-1.14-.21-2.35-.23-3.61s-.05-2.87-.08-4.48l-.12-6.88q-.19-11.69-1.31-15.82-2.58-9.81-10.32-9.81-11,0-12.83,13.76a36.55,36.55,0,0,0-.43,5.08c-.08,2.24-.14,5.13-.19,8.69q-.14,2.4-.09,5c0,1.73.06,3.39.09,5q.24,13.26.79,15.49,1.86,8.43,9.31,11l-.8,3.44a52.26,52.26,0,0,0-7.59-1q-4.31-.25-9.81-.26A80.85,80.85,0,0,0,239,177.75l-.57-3.09q7.37-2.07,8.37-13.59c.09-.92.15-2.84.15-5.77s0-7-.12-12.13c-.08-4.24-.23-8-.46-11.18s-.47-6-.74-8.25q-2.16-14.8-9.2-14.8-6.37,0-10.22,6-4.69,7.4-4.31,29.08.23,13.25.81,17,1.76,11.52,8.32,13.42l-.46,3.26A80.71,80.71,0,0,0,214,175.86a78.88,78.88,0,0,0-17.34,1.72l-.91-3.09q7.5-3.45,8.86-14.46.15-.85-.14-18.23-.21-11.7-.33-18.41c-.08-4.58-.19-7.51-.32-8.77q-.3-7.4-2.06-9.64c-.48-.8-2.38-1.54-5.72-2.23l-1-.34,0-2.93q17.68-2.24,26.38-6.71L223.1,95c-.21,1.61-.35,3.41-.42,5.42s-.1,4.21-.06,6.62c0,1.15,0,2.12,0,2.92a7.62,7.62,0,0,0,.21,1.9q9.7-15,23.3-15,11.88,0,17.47,15.14Q273.9,97.6,288.17,97.59q18.22,0,18.66,24.43c0,.91,0,2,.06,3.26s0,2.41-.11,3.79l-.3,12.39q-.14,2.06-.09,4.47c0,1.61.06,3.38.09,5.33q.25,14.12,1.67,16.86,2.13,3.78,7.68,6.19Z"></path>
      <path class="cls-1" d="M469.05,177.56a89.75,89.75,0,0,0-18.75-2.06,94.72,94.72,0,0,0-9.63.51,90,90,0,0,0-10.33,1.72l-.68-2.92q8.59-4.47,8.6-12,0-6.2-5.34-23.92a51.35,51.35,0,0,0-16.34-2.58q-11.19,0-16.52,3.79a57,57,0,0,0-4.64,21.5q0,10,10,12.73l-.86,3.44a69,69,0,0,0-13.42-1.37,55.65,55.65,0,0,0-11.87,1.2l-.52-2.41q5.67-5.67,10.15-17.37,3.27-8.26,5.85-16t4.65-15L411.25,86.2c.45-1.14,1.31-4.07,2.58-8.77a13.41,13.41,0,0,0-1.21-3c-.57-1.09-1.32-2.38-2.23-3.87l.68-1.89q12.23-3.61,18.59-10l1.72.86q.86,4.47,2,9.8t2.84,11.53c.58,1.84,1.44,4.93,2.58,9.29s2.7,10,4.65,16.86q10.5,39.06,17,54.71,4.14,10.16,9.29,13.08ZM423,104.27c-1.27-4.24-2.41-7.94-3.45-11.1s-2-5.87-2.92-8.17l-15,49a44.92,44.92,0,0,1,15.83-2.58q2.4,0,5.85.35t7.74,1Z"></path>
      <path class="cls-1" d="M506.22,177.73l-1.55.35c-.58-.12-1.58-.26-3-.43s-3.36-.43-5.77-.78c-4.36-.68-6.71-1-7.05-1A57.63,57.63,0,0,0,473,177.73l-1-3.61a12.66,12.66,0,0,0,7.91-9.63q.53-2.24.52-13.25v-3.61c0-1.49.06-3.21.17-5.17s.17-3.66.17-5.16v-3.61q0,8.77.52-11.36.51-18.92-8.43-20.12V99.45A108.79,108.79,0,0,0,486.6,97.3a80.69,80.69,0,0,0,12.56-3.87l1.72,2.07c-.23,1.83-.43,5-.6,9.37s-.37,10.18-.6,17.29c-.12,2-.17,4.25-.17,6.88v32.52q1.2,10,8.08,12.56Zm-9.29-93.85a13.67,13.67,0,0,1-8.26,2.5,11.66,11.66,0,0,1-7.4-2.41,7.53,7.53,0,0,1-3.1-6.2,7.75,7.75,0,0,1,4-6.71,13.38,13.38,0,0,1,7.74-2.23,12,12,0,0,1,7.4,2.32,7.3,7.3,0,0,1,3.1,6.11A7.79,7.79,0,0,1,496.93,83.88Z"></path>
      <path class="cls-1" d="M570.65,117.26a9.6,9.6,0,0,1-7.31,3q-4.83,0-7.23-7-1.38-3.61-4.47-3.62-9.81,0-12,12.39a142.15,142.15,0,0,0-1.89,25.64q0,12.74.52,15.48,1.54,8.77,8.25,11.7l-1.54,2.92a75.24,75.24,0,0,0-16.35-2.06,71.9,71.9,0,0,0-16.34,2.06v-3.44q5.32-2.23,7.22-8.77,1-3.78,1-12V125.26c0-1.26,0-3-.09-5.33s-.15-5.05-.26-8.26c-.11-2.64-.72-4.53-1.81-5.68s-3.12-2.12-6.1-2.93V100a107.58,107.58,0,0,0,13.24-2.15A84.79,84.79,0,0,0,537.87,94l1.89,2.23c0,.46,0,1.15-.08,2.07s-.15,2.18-.26,3.78-.17,2.76-.17,3.79v5.85q8.43-13.42,21-13.42a14.47,14.47,0,0,1,9.46,3.09,10.34,10.34,0,0,1,3.79,8.43A10.51,10.51,0,0,1,570.65,117.26Z"></path>
      <path class="cls-1" d="M293.35,56c-.81.15,50.2,19.54,54.89,74.34V90.09C347.83,89.74,327.77,53.51,293.35,56Z"></path>
      <path class="cls-1" d="M403.13,56c.8.15-50.2,19.54-54.89,74.34V90.09C348.65,89.74,368.7,53.51,403.13,56Z"></path>
      <path class="cls-1" d="M393.26.12c1.9.52-36.28,7.16-45,32.91V19C348.66,18.38,363.32-1.74,393.26.12Z"></path>
      <path class="cls-1" d="M303.21.12c-1.89.52,36.28,7.16,45,32.91V19C347.82,18.38,333.16-1.74,303.21.12Z"></path>
      <path class="cls-1" d="M398.5,31.12c2.12.6-40.5,8.3-50.26,38.17V50.5C349.37,50,367.45,29.72,398.5,31.12Z"></path>
      <path class="cls-1" d="M298,31.12c-2.12.6,40.49,8.3,50.26,38.17V50.5C347.11,50,329,29.72,298,31.12Z"></path>
    </g>
  </g>
</svg>
