<svg xmlns="http://www.w3.org/2000/svg" width="640" height="480"><path fill="#fff" d="M0 0h640v480H0z"/><path d="M0 0h640v144H0zm0 0"/><path d="M0 168h640v144H0zm0 0" fill="#b00"/><path d="M0 336h640v144H0zm0 0" fill="#060"/><path d="M243.79 382.5l4.62 3 124.567-242.727c7.285-2.195 11.285-9.992 15.285-17.785 2.668-5.195 13.332-25.98 17.957-52.988-18.48 18.008-29.149 38.793-31.813 43.988-4 7.793-8 15.59-6.05 23.785zm0 0"/><path d="M243.79 382.5l4.62 3 124.567-242.727c7.285-2.195 11.285-9.992 15.285-17.785 2.668-5.195 13.332-25.98 17.957-52.988-18.48 18.008-29.149 38.793-31.813 43.988-4 7.793-8 15.59-6.05 23.785zm0 0" fill="#fff"/><path d="M396.21 382.5l-4.62 3-124.567-242.727c-7.285-2.195-11.285-9.992-15.285-17.785-2.668-5.195-13.332-25.98-17.957-52.988 18.48 18.008 29.149 38.793 31.813 43.988 4 7.793 8 15.59 6.05 23.785zm0 0"/><path d="M396.21 382.5l-4.62 3-124.567-242.727c-7.285-2.195-11.285-9.992-15.285-17.785-2.668-5.195-13.332-25.98-17.957-52.988 18.48 18.008 29.149 38.793 31.813 43.988 4 7.793 8 15.59 6.05 23.785zm0 0" fill="#fff"/><path d="M269.332 312c8 24 34.668 72 50.668 72s42.668-48 50.668-72V168c-8-24-34.668-72-50.668-72s-42.668 48-50.668 72zm0 0" fill="#b00"/><path d="M370.668 312c8-24 13.332-48 13.332-72s-5.332-48-13.332-72c-8 24-13.336 48-13.336 72s5.336 48 13.336 72zm0 0M269.332 312c-8-24-13.332-48-13.332-72s5.332-48 13.332-72c8 24 13.336 48 13.336 72s-5.336 48-13.336 72zm0 0"/><path d="M330.668 240c0-9.941-4.777-18-10.668-18-5.89 0-10.668 8.059-10.668 18s4.777 18 10.668 18c5.89 0 10.668-8.059 10.668-18zm0 0" fill="#fff"/><path d="M322.668 257.55s10.664 24 10.664 63-10.664 63-10.664 63zm0 0M317.332 222.45s-10.664-24-10.664-63 10.664-63 10.664-63zm0 0M317.332 257.55s-10.664 24-10.664 63 10.664 63 10.664 63zm0 0M322.668 222.45s10.664-24 10.664-63-10.664-63-10.664-63zm0 0" fill="#fff"/></svg>