<?xml version="1.0" encoding="UTF-8"?>
<svg preserveAspectRatio="xMidYMid slice" xmlns="http://www.w3.org/2000/svg" width="300px" height="77px" viewBox="0 0 185 47" fill="none">
  <path d="M1.848 20H12.72V16.952H5.736V2.84H1.848V20ZM17.8697 20.264C19.8377 20.264 20.9417 19.496 21.6617 18.488V20H25.0457V11.816C25.0457 8.408 22.8617 7.16 19.7897 7.16C16.7177 7.16 14.3657 8.48 14.1497 11.456H17.4377C17.5817 10.376 18.2057 9.68 19.5737 9.68C21.1577 9.68 21.6137 10.496 21.6137 11.984V12.488H20.1977C16.3577 12.488 13.6697 13.592 13.6697 16.52C13.6697 19.16 15.5897 20.264 17.8697 20.264ZM18.9017 17.84C17.6297 17.84 17.0777 17.24 17.0777 16.328C17.0777 14.984 18.2537 14.552 20.2697 14.552H21.6137V15.608C21.6137 17 20.4377 17.84 18.9017 17.84ZM33.1206 24.632C37.2486 24.632 39.7206 22.736 39.7446 19.016V7.448H36.2886V9.32C35.5686 8.048 34.3446 7.16 32.3046 7.16C29.1846 7.16 26.7846 9.68 26.7846 13.28V13.448C26.7846 17.168 29.2086 19.448 32.2566 19.448C34.1046 19.448 35.5926 18.344 36.2886 17.12V19.016C36.2886 20.984 35.2326 22.088 33.1206 22.088C31.3446 22.088 30.5526 21.368 30.3366 20.264H26.8806C27.2166 22.856 29.0646 24.632 33.1206 24.632ZM33.2886 16.832C31.5606 16.832 30.3366 15.536 30.3366 13.448V13.256C30.3366 11.192 31.4166 9.8 33.3606 9.8C35.2566 9.8 36.3846 11.096 36.3846 13.232V13.4C36.3846 15.536 35.1126 16.832 33.2886 16.832ZM48.1864 17.624C46.2184 17.624 45.1144 16.184 45.1144 13.784V13.592C45.1144 11.192 46.2664 9.8 48.1864 9.8C50.1304 9.8 51.2584 11.24 51.2584 13.64V13.808C51.2584 16.184 50.1304 17.624 48.1864 17.624ZM48.1624 20.264C51.9304 20.264 54.7864 17.744 54.7864 13.784V13.592C54.7864 9.68 51.9544 7.16 48.1864 7.16C44.4184 7.16 41.5624 9.728 41.5624 13.664V13.856C41.5624 17.768 44.4184 20.264 48.1624 20.264ZM61.1994 20.264C64.5114 20.264 66.4794 18.848 66.4794 16.136C66.4794 13.448 64.7514 12.656 61.6074 12.2C59.7834 11.936 59.1834 11.624 59.1834 10.832C59.1834 10.064 59.8314 9.536 60.9594 9.536C62.1594 9.536 62.7354 10.016 62.9274 11.048H66.1194C65.8074 8.168 63.7194 7.16 60.9354 7.16C58.3674 7.16 55.9674 8.456 55.9674 11.072C55.9674 13.52 57.2634 14.48 60.5994 14.984C62.3994 15.248 63.1434 15.608 63.1434 16.472C63.1434 17.336 62.5194 17.84 61.1754 17.84C59.6634 17.84 59.1114 17.192 58.9674 16.064H55.7274C55.8474 18.776 57.8154 20.264 61.1994 20.264ZM73.4546 20H77.3666V2.84H73.4546V20ZM80.3713 20H83.8513V12.752C83.8513 10.904 84.9793 9.992 86.4673 9.992C88.0033 9.992 88.6753 10.808 88.6753 12.512V20H92.1553V12.008C92.1553 8.648 90.4033 7.16 87.9313 7.16C85.8433 7.16 84.4753 8.192 83.8513 9.44V7.448H80.3713V20ZM99.2409 20.24C100.177 20.24 100.873 20.072 101.353 19.904V17.216C100.945 17.384 100.561 17.456 100.033 17.456C99.1449 17.456 98.6409 16.976 98.6409 15.968V9.92H101.281V7.448H98.6409V4.736H95.1849V7.448H93.5769V9.92H95.1849V16.28C95.1849 18.896 96.6009 20.24 99.2409 20.24ZM109.008 20.264C112.44 20.264 114.6 18.752 115.008 16.04H111.72C111.504 17.096 110.712 17.792 109.104 17.792C107.208 17.792 106.08 16.592 105.984 14.504H115.032V13.544C115.032 9.056 112.152 7.16 108.912 7.16C105.264 7.16 102.456 9.728 102.456 13.688V13.88C102.456 17.888 105.216 20.264 109.008 20.264ZM106.032 12.368C106.296 10.592 107.352 9.56 108.912 9.56C110.568 9.56 111.528 10.472 111.648 12.368H106.032ZM116.83 20H120.31V13.712C120.31 11.312 121.798 10.472 124.366 10.496V7.256C122.326 7.28 121.102 8.168 120.31 9.848V7.448H116.83V20ZM126.17 20H129.65V12.752C129.65 10.904 130.778 9.992 132.266 9.992C133.802 9.992 134.474 10.808 134.474 12.512V20H137.954V12.008C137.954 8.648 136.202 7.16 133.73 7.16C131.642 7.16 130.274 8.192 129.65 9.44V7.448H126.17V20ZM143.84 20.264C145.808 20.264 146.912 19.496 147.632 18.488V20H151.016V11.816C151.016 8.408 148.832 7.16 145.76 7.16C142.688 7.16 140.336 8.48 140.12 11.456H143.408C143.552 10.376 144.176 9.68 145.544 9.68C147.128 9.68 147.584 10.496 147.584 11.984V12.488H146.168C142.328 12.488 139.64 13.592 139.64 16.52C139.64 19.16 141.56 20.264 143.84 20.264ZM144.872 17.84C143.6 17.84 143.048 17.24 143.048 16.328C143.048 14.984 144.224 14.552 146.24 14.552H147.584V15.608C147.584 17 146.408 17.84 144.872 17.84ZM153.619 20H157.075V1.76H153.619V20ZM1.848 47H5.712V40.376H7.392L11.496 47H15.624L11.088 39.704C13.104 39.104 14.616 37.736 14.616 35.144V35.048C14.616 31.496 12.048 29.84 7.992 29.84H1.848V47ZM5.712 37.736V32.816H7.896C9.768 32.816 10.824 33.416 10.824 35.168V35.264C10.824 36.92 9.84 37.736 7.896 37.736H5.712ZM22.4963 47.264C25.9283 47.264 28.0883 45.752 28.4963 43.04H25.2083C24.9923 44.096 24.2003 44.792 22.5923 44.792C20.6963 44.792 19.5683 43.592 19.4723 41.504H28.5203V40.544C28.5203 36.056 25.6403 34.16 22.4003 34.16C18.7523 34.16 15.9443 36.728 15.9443 40.688V40.88C15.9443 44.888 18.7043 47.264 22.4963 47.264ZM19.5203 39.368C19.7843 37.592 20.8403 36.56 22.4003 36.56C24.0563 36.56 25.0163 37.472 25.1363 39.368H19.5203ZM33.3506 47H37.2626L41.8226 34.448H38.4626L35.4866 43.424L32.4866 34.448H28.7666L33.3506 47ZM48.3956 47.264C51.8276 47.264 53.9876 45.752 54.3956 43.04H51.1076C50.8916 44.096 50.0996 44.792 48.4916 44.792C46.5956 44.792 45.4676 43.592 45.3716 41.504H54.4196V40.544C54.4196 36.056 51.5396 34.16 48.2996 34.16C44.6516 34.16 41.8436 36.728 41.8436 40.688V40.88C41.8436 44.888 44.6036 47.264 48.3956 47.264ZM45.4196 39.368C45.6836 37.592 46.7396 36.56 48.2996 36.56C49.9556 36.56 50.9156 37.472 51.0356 39.368H45.4196ZM56.2176 47H59.6976V39.752C59.6976 37.904 60.8256 36.992 62.3136 36.992C63.8496 36.992 64.5216 37.808 64.5216 39.512V47H68.0016V39.008C68.0016 35.648 66.2496 34.16 63.7776 34.16C61.6896 34.16 60.3216 35.192 59.6976 36.44V34.448H56.2176V47ZM74.6792 47.264C76.7432 47.264 78.0152 46.304 78.6632 45.032V47H82.1192V34.448H78.6632V41.816C78.6632 43.664 77.5112 44.576 76.0472 44.576C74.5592 44.576 73.8632 43.76 73.8632 42.056V34.448H70.4072V42.536C70.4072 45.824 72.2312 47.264 74.6792 47.264ZM90.5025 47.264C93.9345 47.264 96.0945 45.752 96.5025 43.04H93.2145C92.9985 44.096 92.2065 44.792 90.5985 44.792C88.7025 44.792 87.5745 43.592 87.4785 41.504H96.5265V40.544C96.5265 36.056 93.6465 34.16 90.4065 34.16C86.7585 34.16 83.9505 36.728 83.9505 40.688V40.88C83.9505 44.888 86.7105 47.264 90.5025 47.264ZM87.5265 39.368C87.7905 37.592 88.8465 36.56 90.4065 36.56C92.0625 36.56 93.0225 37.472 93.1425 39.368H87.5265ZM109.477 47.264C113.533 47.264 116.029 44.84 116.029 41.792C116.029 38.24 113.893 37.112 109.741 36.584C107.101 36.2 106.549 35.624 106.549 34.4C106.549 33.248 107.413 32.456 109.117 32.456C110.821 32.456 111.733 33.176 111.973 34.736H115.549C115.237 31.328 112.981 29.6 109.117 29.6C105.325 29.6 102.877 31.784 102.877 34.712C102.877 38.024 104.677 39.344 109.069 39.92C111.589 40.304 112.309 40.784 112.309 42.152C112.309 43.496 111.181 44.432 109.477 44.432C106.933 44.432 106.285 43.16 106.117 41.624H102.397C102.613 45.056 104.773 47.264 109.477 47.264ZM123.82 47.264C127.252 47.264 129.412 45.752 129.82 43.04H126.532C126.316 44.096 125.524 44.792 123.916 44.792C122.02 44.792 120.892 43.592 120.796 41.504H129.844V40.544C129.844 36.056 126.964 34.16 123.724 34.16C120.076 34.16 117.268 36.728 117.268 40.688V40.88C117.268 44.888 120.028 47.264 123.82 47.264ZM120.844 39.368C121.108 37.592 122.164 36.56 123.724 36.56C125.38 36.56 126.34 37.472 126.46 39.368H120.844ZM131.642 47H135.122V40.712C135.122 38.312 136.61 37.472 139.178 37.496V34.256C137.138 34.28 135.914 35.168 135.122 36.848V34.448H131.642V47ZM144.484 47H148.396L152.956 34.448H149.596L146.62 43.424L143.62 34.448H139.9L144.484 47ZM154.45 47H157.906V34.448H154.45V47ZM156.154 32.744C157.282 32.744 158.146 31.928 158.146 30.848C158.146 29.768 157.282 28.952 156.154 28.952C155.05 28.952 154.186 29.768 154.186 30.848C154.186 31.928 155.05 32.744 156.154 32.744ZM166.312 47.264C169.96 47.264 172.12 45.2 172.312 42.224H169.168C169 43.832 167.872 44.648 166.48 44.648C164.536 44.648 163.408 43.352 163.408 40.832V40.64C163.408 38.24 164.608 36.896 166.408 36.896C167.824 36.896 168.712 37.568 168.952 39.032H172.24C171.928 35.432 169.24 34.16 166.336 34.16C162.76 34.16 159.856 36.632 159.856 40.688V40.88C159.856 44.984 162.64 47.264 166.312 47.264ZM179.803 47.264C183.235 47.264 185.395 45.752 185.803 43.04H182.515C182.299 44.096 181.507 44.792 179.899 44.792C178.003 44.792 176.875 43.592 176.779 41.504H185.827V40.544C185.827 36.056 182.947 34.16 179.707 34.16C176.059 34.16 173.251 36.728 173.251 40.688V40.88C173.251 44.888 176.011 47.264 179.803 47.264ZM176.827 39.368C177.091 37.592 178.147 36.56 179.707 36.56C181.363 36.56 182.323 37.472 182.443 39.368H176.827Z" transform="translate(-1 -1)" fill="#011B33"></path>
</svg>
