<?xml version="1.0" encoding="UTF-8"?>
<!DOCTYPE svg PUBLIC "-//W3C//DTD SVG 1.1//EN" "http://www.w3.org/Graphics/SVG/1.1/DTD/svg11.dtd">
<!-- Creator: CorelDRAW 2018 (64-Bit) -->
<svg xmlns="http://www.w3.org/2000/svg" xml:space="preserve" width="4in" height="4in" version="1.1" style="shape-rendering:geometricPrecision; text-rendering:geometricPrecision; image-rendering:optimizeQuality; fill-rule:evenodd; clip-rule:evenodd"
viewBox="0 0 4000 4000"
 xmlns:xlink="http://www.w3.org/1999/xlink">
 <defs>
  <style type="text/css">
   <![CDATA[
    .fil0 {fill:none}
    .fil2 {fill:#131E32}
    .fil1 {fill:#2DBDEF}
   ]]>
  </style>
 </defs>
 <g id="Layer_x0020_1">
  <metadata id="CorelCorpID_0Corel-Layer"/>
  <rect class="fil0" x="-0" y="-0" width="4000" height="4000"/>
  <g id="_2960056556176">
   <path class="fil1" d="M815.64 1760.76l-443.7 0c-14.9,0 -27.59,12.69 -27.59,28.15l0 50.22c0,15.45 12.69,28.15 27.59,28.15l443.7 0c15.45,0 27.59,-12.69 28.15,-28.15l0 -49.67c0,-16.01 -12.69,-28.7 -28.15,-28.7l0 0zm0 278.7l-443.7 0c-7.18,0 -14.35,2.76 -19.31,8.28 -5.52,5.52 -8.28,12.14 -8.28,19.87l0 50.22c0,15.45 12.69,28.15 27.59,28.15l443.7 -0c15.45,0 27.59,-12.14 28.15,-28.15l0 -50.22c-0.55,-16 -12.69,-28.15 -28.15,-28.15zm-193.7 139.07l-250 0c-7.18,0 -14.35,2.76 -19.31,8.28 -4.97,5.52 -8.28,12.14 -8.28,19.87l0 50.22c0,15.45 12.69,28.15 27.59,28.15l249.45 0c15.45,0 27.59,-12.69 27.59,-27.59l0 -50.22c0.55,-16.56 -11.59,-28.69 -27.04,-28.69zm221.85 -278.7l-471.85 0c-7.18,0 -14.35,2.76 -19.31,8.28 -4.97,5.52 -8.28,12.14 -8.28,19.87l0 50.22c0,15.45 12.69,28.15 27.59,28.15l471.3 0c15.45,0 27.59,-12.69 27.59,-28.15l0 -50.22c0.55,-14.9 -12.14,-27.59 -27.04,-28.15z"/>
   <path class="fil2" d="M1359.79 1873.35c-13.8,-14.35 -29.8,-25.39 -48.01,-33.11 -18.21,-7.73 -37.53,-11.59 -57.39,-11.59 -19.31,-0.55 -38.08,3.86 -55.74,12.14 -11.59,5.52 -22.07,13.24 -30.91,22.63l0 -8.83c0,-4.41 -1.65,-8.83 -4.41,-12.14 -2.76,-3.31 -7.17,-5.52 -12.14,-5.52l-61.26 -0c-4.41,0 -8.83,1.66 -11.59,5.52 -3.31,3.31 -4.97,7.72 -4.41,12.14l-0 412.8c0,4.41 1.65,8.83 4.41,12.14 3.31,3.31 7.18,4.97 11.59,4.97l62.92 -0c4.41,0 8.28,-1.65 11.59,-4.96 3.31,-2.76 5.52,-7.18 4.97,-12.15l0 -141.28c8.83,9.93 20.42,17.11 33.11,21.52 16.56,6.07 33.67,9.38 51.33,9.38 19.87,0 39.73,-3.87 57.95,-11.59 18.21,-7.72 34.76,-18.76 48.56,-33.11 14.35,-14.9 25.39,-32.56 33.11,-51.88 8.83,-21.52 12.69,-44.7 12.15,-67.88 0.55,-23.18 -3.87,-46.36 -12.15,-68.43 -8.28,-18.21 -19.31,-35.87 -33.67,-50.77l0 0zm-56.29 149.56c-3.31,8.83 -8.28,16.56 -14.9,23.73 -12.69,13.8 -30.91,21.52 -49.67,21.52 -9.38,0 -18.76,-1.66 -27.59,-6.07 -8.28,-3.86 -16,-8.83 -22.63,-15.45 -6.62,-6.62 -11.59,-14.9 -14.9,-23.73 -7.18,-18.76 -7.18,-39.19 0,-57.95 3.31,-8.83 8.83,-16.56 14.9,-23.18 6.62,-6.62 14.35,-12.14 22.63,-16 8.83,-3.86 18.21,-6.07 27.59,-6.07 9.93,0 18.76,1.65 28.15,6.07 8.28,3.86 16,8.83 22.07,15.45 6.62,6.62 11.04,14.35 14.9,23.18 6.62,19.31 6.07,39.74 -0.55,58.5zm439.29 -185.43l-62.36 0c-4.41,0 -8.83,1.66 -11.59,4.97 -3.31,3.31 -4.96,7.72 -4.96,12.69l0 7.72c-7.73,-9.38 -17.66,-16.56 -28.15,-21.52 -17.11,-8.28 -35.87,-12.15 -54.64,-12.15 -40.29,0 -78.37,16.01 -107.06,44.15 -14.9,14.9 -26.49,32.56 -34.22,51.87 -8.83,21.52 -13.24,44.7 -12.69,68.43 -0.55,23.18 3.86,46.36 12.69,68.43 8.28,19.31 19.31,36.98 34.22,51.87 28.15,28.7 66.78,44.7 106.51,44.7 18.76,0.55 37.53,-3.87 54.63,-12.15 10.48,-5.52 20.97,-12.69 28.7,-21.52l0 8.28c0,4.41 1.65,8.83 4.96,12.14 3.31,2.76 7.18,4.96 11.59,4.96l62.36 0c4.41,0 8.83,-1.65 11.59,-4.96 3.31,-3.31 4.96,-7.73 4.96,-12.14l0 -277.59c0,-4.41 -1.65,-8.83 -4.41,-12.14 -3.31,-3.86 -7.73,-6.07 -12.14,-6.07l0 0zm-84.44 185.43c-3.31,8.83 -8.28,16.56 -14.9,23.73 -6.62,6.62 -13.8,12.14 -22.07,16 -17.66,8.28 -38.08,8.28 -55.74,0 -8.28,-3.86 -16,-9.38 -22.63,-16 -6.62,-6.62 -11.59,-14.9 -14.9,-23.73 -6.62,-18.76 -6.62,-39.19 0,-57.95 3.31,-8.83 8.28,-16 14.9,-23.18 6.62,-6.62 13.8,-12.14 22.63,-16 17.66,-8.28 38.08,-8.28 55.19,0 8.28,3.86 16.01,8.83 22.07,15.45 6.07,6.62 11.04,14.35 14.9,23.18 7.72,19.31 7.72,39.74 0.55,58.5zm705.85 -37.53c-8.83,-7.73 -19.31,-14.35 -30.35,-18.76 -11.59,-4.97 -24.28,-8.28 -36.42,-11.04l-47.46 -9.38c-12.14,-2.21 -20.97,-5.52 -25.39,-9.38 -3.86,-2.76 -6.62,-7.17 -6.62,-12.14 0,-4.96 2.76,-9.38 8.83,-13.24 8.28,-4.41 17.11,-6.62 26.49,-6.07 12.14,0 24.28,2.76 35.32,7.18 11.04,4.96 21.52,9.93 31.46,16.56 13.8,8.83 25.94,7.17 34.22,-2.76l22.63 -25.94c4.41,-4.41 6.62,-9.93 7.17,-16 -0.55,-6.62 -3.86,-12.14 -8.83,-16.56 -9.38,-8.28 -24.83,-17.11 -45.25,-25.94 -20.42,-8.83 -46.36,-13.24 -76.71,-13.24 -18.76,-0.55 -36.98,2.2 -54.63,7.72 -14.9,4.97 -29.25,12.14 -41.94,21.52 -11.59,8.83 -20.42,19.87 -27.04,33.11 -6.07,12.69 -9.38,26.49 -9.38,40.29 0,25.94 7.73,46.91 23.18,62.36 15.45,15.45 35.87,25.94 61.26,30.91l49.67 11.04c10.48,1.65 21.52,4.96 31.46,9.93 5.52,2.21 8.83,7.72 8.83,13.8 0,5.52 -2.76,10.48 -8.83,14.9 -6.07,4.42 -16.01,7.18 -29.25,7.18 -13.24,0 -27.04,-2.76 -39.18,-8.83 -11.59,-5.52 -22.07,-12.69 -32.01,-20.97 -4.41,-3.31 -8.83,-6.07 -14.35,-8.28 -5.52,-1.65 -12.69,0 -19.87,6.07l-27.04 20.42c-7.72,5.52 -11.59,14.9 -9.38,23.73 1.65,9.38 8.83,18.21 22.63,28.7 34.22,23.18 75.06,35.32 116.44,34.21 19.31,0 38.63,-2.2 56.84,-7.72 16.01,-4.97 30.91,-12.14 44.15,-22.07 12.14,-8.83 22.07,-20.42 28.7,-34.22 6.62,-13.24 9.93,-27.59 9.93,-42.5 0.55,-13.24 -2.21,-26.49 -7.72,-38.63 -5.52,-8.83 -12.7,-18.22 -21.53,-25.94l0 0zm272.63 75.61c-2.76,-4.97 -7.73,-8.28 -13.8,-9.38 -5.52,0 -11.59,1.66 -16,4.97 -7.72,4.97 -16.56,7.72 -25.39,8.28 -2.76,0 -6.07,-0.55 -8.83,-1.11 -3.31,-0.55 -6.07,-2.2 -8.28,-4.41 -2.76,-2.76 -4.97,-6.07 -6.62,-9.38 -2.21,-5.52 -3.31,-11.04 -2.76,-16.56l0 -113.13 80.57 -0c4.97,0 9.38,-2.21 12.69,-5.52 3.31,-3.31 5.52,-7.18 5.52,-12.15l0 -48.01c0,-4.97 -1.65,-9.38 -5.52,-12.14 -3.31,-3.31 -7.72,-4.97 -12.14,-4.97l-81.13 0 0 -77.26c0,-4.41 -1.65,-9.38 -4.96,-12.14 -3.31,-2.76 -7.18,-4.42 -11.59,-4.97l-62.91 0c-4.41,0 -8.83,1.66 -12.14,4.97 -3.31,3.31 -5.52,7.73 -5.52,12.14l0 77.26 -35.87 -0c-4.41,0 -8.83,1.66 -12.14,5.52 -2.76,3.31 -4.41,7.72 -4.41,12.14l0 48.01c0,4.42 1.65,8.83 4.41,12.15 2.76,3.86 7.17,5.52 12.14,5.52l35.87 0 0 134.66c-0.55,16 2.76,32.01 9.38,46.36 6.07,12.14 13.8,22.63 24.28,31.46 9.93,8.28 21.52,14.35 34.21,17.66 12.7,3.86 25.94,6.07 39.19,6.07 17.11,0 34.77,-2.76 51.33,-8.28 15.45,-4.97 29.25,-13.8 40.29,-25.39 7.17,-7.18 7.72,-18.76 2.21,-27.04l-22.07 -35.32zm341.06 -223.51l-62.36 0c-4.41,0 -8.28,1.66 -11.59,4.97 -3.31,3.31 -4.97,7.72 -4.97,12.69l0 7.72c-7.72,-9.38 -17.11,-16.56 -28.14,-21.52 -17.11,-8.28 -35.87,-12.15 -54.64,-12.15 -40.29,0 -78.37,16.01 -107.06,44.15 -14.9,14.9 -26.49,32.56 -34.22,51.87 -8.83,21.52 -13.24,44.7 -12.69,67.88 -0.55,23.18 3.86,46.36 12.69,68.43 7.72,19.31 19.87,36.98 34.22,51.88 28.15,28.7 66.22,44.7 106.51,44.7 18.76,0.55 37.53,-3.87 54.63,-11.59 11.04,-5.52 20.97,-12.69 28.7,-21.52l0 8.28c0,4.41 1.66,8.83 4.97,11.59 3.31,3.31 7.18,4.96 11.59,4.96l62.36 0c9.38,0 16.56,-7.17 16.56,-16.56l0 -277.59c0,-4.42 -1.66,-8.83 -4.41,-12.15 -2.76,-3.86 -7.18,-6.07 -12.15,-6.07l0 0zm-83.88 185.98c-3.31,8.83 -8.28,16.56 -14.9,23.73 -6.62,6.62 -13.8,12.14 -22.07,16 -8.83,3.86 -18.21,6.07 -28.15,6.07 -9.93,0 -18.76,-2.21 -27.59,-6.07 -8.28,-3.86 -16,-9.38 -22.63,-16 -6.62,-6.63 -11.59,-14.9 -14.35,-23.73 -6.62,-18.76 -6.62,-39.19 0,-57.95 3.31,-8.83 8.28,-16.56 14.35,-23.18 6.62,-6.62 14.35,-12.14 22.63,-16 8.83,-3.87 18.21,-6.07 27.59,-6.07 9.39,0 18.76,1.65 28.15,6.07 8.28,3.86 15.45,8.83 22.07,15.45 6.62,6.62 11.59,14.35 14.9,23.18 7.17,18.21 7.17,39.74 0,58.5zm426.05 33.67l-35.87 -27.59c-6.62,-5.52 -13.24,-7.18 -18.76,-4.97 -4.96,2.21 -9.38,5.52 -13.24,9.38 -7.72,9.38 -17.11,17.66 -27.04,24.83 -11.04,6.07 -22.63,9.38 -34.77,8.28 -14.35,0 -27.59,-3.86 -39.19,-12.14 -11.59,-8.28 -20.42,-19.31 -24.83,-33.11 -3.31,-9.38 -4.96,-18.76 -4.96,-28.14 0,-9.94 1.65,-19.31 4.96,-29.25 3.31,-8.83 7.73,-16.56 14.35,-23.18 6.62,-6.62 13.8,-12.14 22.07,-15.45 8.83,-3.86 18.21,-6.07 28.14,-6.07 12.14,-0.55 24.28,2.76 34.77,8.83 10.48,6.62 19.31,14.9 27.04,24.83 3.31,3.86 7.72,7.18 12.69,9.38 5.52,2.21 12.14,0.55 18.76,-4.97l35.87 -27.04c4.41,-2.76 7.73,-7.18 9.38,-12.14 2.21,-5.52 1.65,-11.59 -1.65,-16.56 -13.8,-21.52 -32.56,-39.19 -55.19,-51.88 -23.73,-13.24 -51.88,-20.42 -83.33,-20.42 -22.07,0 -44.15,4.41 -65.12,12.69 -19.87,8.28 -37.53,19.87 -52.43,34.76 -14.9,14.9 -27.04,32.56 -35.32,52.43 -17.11,41.39 -17.11,87.75 0,129.14 8.28,19.31 19.87,37.53 35.32,51.88 31.46,30.9 73.4,47.46 117.55,47.46 31.46,0 59.6,-7.18 83.33,-20.42 22.63,-12.69 41.94,-30.35 55.74,-52.43 2.76,-4.97 3.31,-11.04 1.65,-16.01 -2.2,-4.41 -5.52,-8.83 -9.93,-12.14l0 0zm332.23 64.57l-98.79 -144.59 84.44 -111.48c3.86,-4.97 5.52,-12.14 3.31,-18.21 -1.65,-4.41 -5.52,-8.83 -16,-8.83l-66.78 0c-3.87,0 -7.73,1.1 -11.04,2.76 -4.41,2.2 -7.72,5.52 -9.93,9.38l-67.33 94.37 -16 0 0 -222.96c0,-4.42 -1.66,-8.83 -4.97,-12.15 -3.31,-3.31 -7.18,-4.96 -11.59,-4.96l-62.36 0c-4.42,0 -8.83,1.66 -12.15,4.97 -3.31,3.31 -4.96,7.17 -4.96,12.14l0 411.15c0,4.96 1.65,8.83 4.96,12.14 3.31,3.31 7.73,4.96 12.15,4.96l62.36 -0c4.41,0 8.83,-1.65 11.59,-4.96 3.31,-3.31 4.97,-7.73 4.97,-12.14l0 -108.72 17.66 0 73.4 112.58c4.41,8.28 12.69,13.24 21.52,13.24l70.09 0c10.48,0 14.9,-4.96 17.11,-9.38 2.76,-7.17 2.2,-14.35 -1.66,-19.31l0 0zm-1555.19 -283.66l-70.09 0c-5.52,0 -10.49,1.65 -14.35,5.52 -3.31,3.31 -5.52,7.18 -6.62,11.59l-51.87 192.06 -12.7 0 -55.19 -192.06c-1.1,-3.86 -2.76,-7.72 -5.52,-11.59 -3.31,-3.86 -7.73,-6.07 -12.69,-6.07l-71.19 0c-9.38,0 -14.9,2.76 -17.66,9.38 -1.65,5.52 -1.65,11.59 0,17.11l88.3 270.42c1.65,3.87 3.31,8.28 6.62,11.04 3.31,3.31 8.28,4.97 13.24,4.97l37.53 -0 -3.31 8.83 -8.28 24.83c-2.76,7.73 -7.18,14.35 -13.8,19.31 -6.07,4.41 -13.24,7.18 -20.97,6.62 -6.62,0 -12.69,-1.65 -18.76,-3.86 -6.07,-2.76 -11.59,-6.07 -16.56,-9.93 -4.41,-3.31 -9.93,-4.97 -16,-4.97l-0.55 0c-6.62,0.55 -12.69,3.86 -16.01,9.93l-22.07 32.56c-8.83,14.35 -3.87,23.18 1.65,28.14 12.14,11.04 25.94,19.31 41.39,24.28 17.11,6.07 34.77,8.83 52.43,8.83 32.01,0 58.5,-8.83 78.92,-25.94 20.97,-18.76 36.98,-43.05 44.7,-70.64l102.65 -334.44c2.21,-6.07 2.76,-12.14 0.55,-17.66 -0.55,-3.87 -4.41,-8.83 -13.8,-8.28l0 0z"/>
  </g>
 </g>
</svg>
