<svg width="640" height="480" viewBox="0 0 640 480" fill="none" xmlns="http://www.w3.org/2000/svg">
<g clip-path="url(#clip0)">
<path fill-rule="evenodd" clip-rule="evenodd" d="M33.6367 0H606.689C625.26 0 640.367 15.6524 640.367 35.0307V97.2253C640.367 116.521 625.262 132.26 606.689 132.26H33.6367C15.0643 132.26 0 116.523 0 97.2253V35.0307C0 15.6524 15.0643 0 33.6367 0ZM33.6367 347.173H606.689C625.26 347.173 640.367 362.865 640.367 382.163V444.442C640.367 463.738 625.262 479.391 606.689 479.391H33.6367C15.0643 479.391 0 463.738 0 444.442V382.163C0 362.865 15.0643 347.173 33.6367 347.173ZM33.6367 173.545H606.367C624.978 173.545 640 189.239 640 208.574V270.814C640 290.11 624.978 305.844 606.367 305.844H33.6367C15.0643 305.844 0 290.11 0 270.814V208.574C0 189.239 15.0643 173.545 33.6367 173.545Z" fill="#09A5DB"/>
</g>
<defs>
<clipPath id="clip0">
<rect width="640" height="480" fill="white"/>
</clipPath>
</defs>
</svg>