<svg width="640" height="480" fill="none" xmlns="http://www.w3.org/2000/svg"><g clip-path="url(#clip0)" fill-rule="evenodd" clip-rule="evenodd"><path d="M-.005 382.304V97.873l211.777 142.216L-.098 382.304h.093z" fill="#000"/><path d="M144.461 480.083l237.745-159.934h337.68V479.99H144.461v.093z" fill="#00C"/><path d="M129.274 0h590.612v160.122H382.112S132.367-1.594 129.274 0z" fill="red"/><path d="M-.005 59.999v37.874l211.777 142.122L-.098 382.304v37.781l266.713-179.996L-.099 59.999h.094z" fill="#FC0"/><path d="M-.005 59.999V0h89.06l282.37 191.246H719.98v97.685H371.425L88.962 479.99H-.005v-59.905l266.619-179.996L.089 59.999h-.094z" fill="#093"/><path d="M88.962 0h55.499l237.745 160.028h337.68v31.218H371.425L88.962.094V0zm0 480.084h55.499l237.745-159.935h337.68v-31.124H371.425L88.962 479.99v.094z" fill="#fff"/></g><defs><clipPath id="clip0"><path fill="#fff" d="M0 0h640v480H0z"/></clipPath></defs></svg>
